<svg width="60" height="79" viewBox="0 0 60 79" fill="none" xmlns="http://www.w3.org/2000/svg">
<ellipse cx="12.5004" cy="7.31893" rx="12.5004" ry="7.31893" transform="matrix(0.855057 0.518533 -0.520531 0.853843 36.7441 46.4997)" fill="#F4F0E3"/>
<ellipse cx="14.6468" cy="7.75412" rx="14.6468" ry="7.75412" transform="matrix(0.709256 0.704951 -0.706816 0.707397 39.2234 23.268)" fill="#F4F0E3"/>
<ellipse cx="28.224" cy="43.1704" rx="17.4411" ry="23.0242" fill="#F4F0E3"/>
<ellipse cx="12.4918" cy="7.32396" rx="12.4918" ry="7.32396" transform="matrix(0.686045 0.727559 -0.72936 0.68413 25.1423 50.8019)" fill="#F4F0E3"/>
<path d="M7.06026 53.7093C3.16105 51.9235 2.7306 44.5242 6.09884 37.1826C9.46707 29.8409 15.3585 25.337 19.2577 27.1229C23.1569 28.9087 23.5874 36.308 20.2191 43.6496C16.8509 50.9913 10.9595 55.4952 7.06026 53.7093Z" fill="#F4F0E3"/>
<ellipse cx="42.5592" cy="8.63408" rx="8.36215" ry="7.67473" fill="#F4F0E3"/>
<ellipse cx="16.7559" cy="7.67473" rx="8.36215" ry="7.67473" fill="#F4F0E3"/>
<ellipse cx="29.6574" cy="15.8292" rx="17.9189" ry="14.3901" fill="#F4F0E3"/>
<ellipse cx="36.7936" cy="20.7715" rx="1.43351" ry="1.19918" fill="#015D8E"/>
<ellipse cx="22.4584" cy="19.3325" rx="1.43351" ry="1.19918" fill="#015D8E"/>
<path d="M30.4465 22.8338C30.406 23.0679 29.685 23.7824 28.9807 23.6611C28.2764 23.5399 27.8556 22.6288 27.8961 22.3947C27.9366 22.1605 28.5404 22.069 29.2447 22.1903C29.9489 22.3115 30.487 22.5997 30.4465 22.8338Z" fill="#015D8E"/>
</svg>
